<svg xmlns="http://www.w3.org/2000/svg" id="Layer_1" data-name="Layer 1" viewBox="0 0 192.8 53.6"><defs><style>      .cls-1 {        fill: #009fdc;      }      .cls-1, .cls-2 {        stroke-width: 0px;      }      .cls-2 {        fill: #fff;      }    </style></defs><path class="cls-2" d="M47.3,38.2c-.2.4-.4.8-.6,1.1-.2.4-.5.8-.7,1.1-.7,1-1.4,2-2.2,2.9-.3.3-.6.6-.8.9,0,0,0,.1-.2.2-.3.3-.7.7-1,1-.4.3-.8.6-1.2,1-.4.3-.8.6-1.3.9-1.4.9-2.8,1.7-4.3,2.3-3,1.2-6.2,1.8-9.4,1.9-3.2,0-6.4-.6-9.4-1.9-3-1.3-5.7-3-8-5.3-2.3-2.3-4.1-4.9-5.3-7.9-.2-.4-.3-.8-.4-1.2-.2-.4-.3-.8-.4-1.3-.1-.4-.2-.8-.3-1.2h0c0-.5-.2-.9-.3-1.4,0,0,0-.1,0-.2,0-.4-.1-.7-.2-1.1,0,0,0-.2,0-.3h0c0-.5,0-1-.1-1.4,0-.5,0-.9,0-1.4v-2c0-.5.2-1,.2-1.4,0,0,0-.2,0-.3,0-.4.1-.8.2-1.2h0s0,0,0,0c0-.4.2-.9.3-1.3v-.2c.2-.4.3-.7.4-1.1l.4-1.2c0-.2.2-.4.2-.6,1.3-3,3-5.7,5.3-8,2.3-2.3,5-4.1,8-5.3,3-1.2,6.1-1.8,9.4-1.8s6.4.6,9.4,1.8c1.3.6,2.5,1.2,3.7,2,.5.3.9.6,1.3.9s.8.6,1.2,1c.4.3.8.6,1.1,1,.2.2.4.4.6.6l.4.4c.8.9,1.6,1.8,2.3,2.8.3.4.5.7.7,1.1.2.4.5.7.7,1.1.2.4.4.8.6,1.2l-1.2.5-1.2.5-1.2.5-3.3,1.3-1.2.5-1.2.5-1.2.5c-.2-.4-.5-.8-.7-1.1-.3-.4-.6-.7-.9-1.1-.2-.2-.3-.4-.6-.6l-.4-.4c-1.1-1-2.2-1.8-3.6-2.3h-.3c-.5-.3-1-.5-1.6-.6-.8-.2-1.7-.4-2.5-.4-.3,0-.7,0-1,0-1.6,0-3.2.3-4.8.9h0c0,0-.2,0-.3.1-1.6.7-3,1.6-4.3,2.9,0,0-.2.2-.3.3-.6.6-1.1,1.3-1.5,2-.4.6-.7,1.2-1,1.8,0,0,0,.2-.1.3,0,.2,0,.3-.2.4-.2.4-.3.8-.4,1.2,0,.4-.2.8-.3,1.3,0,.3,0,.6,0,.9,0,.1,0,.2,0,.4,0,.3,0,.5,0,.8v.6c0,.3,0,.6,0,1,0,.4.1.9.2,1.3,0,.4.2.9.3,1.3l.2.5c0,.2,0,.3.2.5.2.4.4.8.6,1.2.4.6.8,1.3,1.2,1.9.3.4.7.8,1.1,1.2.4.4.8.7,1.2,1.1,1,.7,2,1.4,3.1,1.8,1.3.5,2.7.9,4.1,1,.3,0,.6,0,1,0,.8,0,1.5,0,2.2-.2.7-.1,1.5-.3,2.2-.6.2,0,.5-.2.7-.3l1-.5c1.2-.6,2.3-1.4,3.3-2.4h0c.3-.3.6-.7.9-1,.3-.3.6-.7.8-1.1.2-.4.4-.7.6-1.1l1.2.5,1.2.5,1.2.5,3.2,1.3,1.2.5,1.2.5,1.2.5c-.2.4-.4.8-.6,1.2Z"></path><path class="cls-1" d="M141.1,38.1c-.3,1.7-.9,3.3-1.7,4.8-.9,1.5-1.9,2.8-3.3,3.9-1.3,1.1-2.8,1.9-4.4,2.6-1.6.6-3.3.9-5,.9h-27.6V3.1h26.8c.2,0,.4,0,.6,0,1.7,0,3.3.5,4.8,1.2,3.1,1.4,5.5,3.6,7.1,6.7.4.7.7,1.5,1,2.3.3.8.5,1.6.6,2.4.1.8.2,1.7.1,2.5,0,.8-.1,1.6-.3,2.5-.3,1.4-.8,2.8-1.5,4.1l-.3.6c-.1.2-.2.4-.4.6.3.3.6.7.9,1,.3.4.6.9.9,1.4.4.7.8,1.5,1.1,2.3.3.8.5,1.6.6,2.5s.2,1.7.2,2.5,0,1.7-.2,2.6ZM126.6,20.9c.4-.2.7-.3,1-.6.2-.2.3-.3.5-.5,0-.1.2-.2.3-.4.2-.3.3-.7.4-1,0-.2,0-.4,0-.6,0-.2,0-.4,0-.6,0-.4-.2-.7-.3-1.1-.4-.7-.9-1.2-1.6-1.5-.3-.2-.7-.2-1.1-.2,0,0-.1,0-.2,0h-15.3v6.7h15.2c.4,0,.8,0,1.1-.2ZM129.6,34c-.2-.3-.4-.6-.6-.8,0,0-.1,0-.2-.1-.3-.2-.6-.4-1-.6-.2,0-.4-.1-.6-.2h-.2s-16.8,0-16.8,0v6.7h16.4c.4,0,.8,0,1.1-.2.4-.2.7-.3,1-.6.3-.3.6-.6.7-.9.2-.3.3-.7.4-1.1,0-.2,0-.4,0-.6s0-.4,0-.6c0-.4-.2-.7-.4-1.1Z"></path><path class="cls-1" d="M191.1,38.2c-.2.4-.4.8-.6,1.1-.2.4-.5.8-.7,1.1-.7,1-1.4,2-2.2,2.9-.3.3-.6.6-.8.9,0,0,0,.1-.2.2-.3.3-.7.7-1,1-.4.3-.8.6-1.2,1-.4.3-.8.6-1.3.9-1.4.9-2.8,1.7-4.3,2.3-3,1.2-6.2,1.8-9.4,1.9-3.2,0-6.4-.6-9.4-1.9-3-1.3-5.7-3-8-5.3-2.3-2.3-4.1-4.9-5.3-7.9-.2-.4-.3-.8-.4-1.2-.2-.4-.3-.8-.4-1.3-.1-.4-.2-.8-.3-1.2h0c0-.5-.2-.9-.3-1.4,0,0,0-.1,0-.2,0-.4-.1-.7-.2-1.1,0,0,0-.2,0-.3h0c0-.5,0-1-.1-1.4,0-.5,0-.9,0-1.4v-2c0-.5.2-1,.2-1.4,0,0,0-.2,0-.3,0-.4.1-.8.2-1.2h0s0,0,0,0c0-.4.2-.9.3-1.3v-.2c.2-.4.3-.7.4-1.1l.4-1.2c0-.2.2-.4.2-.6,1.3-3,3-5.7,5.3-8,2.3-2.3,5-4.1,8-5.3,3-1.2,6.1-1.8,9.4-1.8s6.4.6,9.4,1.8c1.3.6,2.5,1.2,3.7,2,.5.3.9.6,1.3.9.4.3.8.6,1.2,1,.4.3.8.6,1.1,1,.2.2.4.4.6.6l.4.4c.8.9,1.6,1.8,2.3,2.8.3.4.5.7.7,1.1.2.4.5.7.7,1.1.2.4.4.8.6,1.2l-1.2.5-1.2.5-1.2.5-3.3,1.3-1.2.5-1.2.5-1.2.5c-.2-.4-.5-.8-.7-1.1-.3-.4-.6-.7-.9-1.1-.2-.2-.3-.4-.6-.6l-.4-.4c-1.1-1-2.2-1.8-3.6-2.3h-.3c-.5-.3-1-.5-1.6-.6-.8-.2-1.7-.4-2.5-.4-.3,0-.7,0-1,0-1.6,0-3.2.3-4.8.9h0c0,0-.2,0-.3.1-1.6.7-3,1.6-4.3,2.9,0,0-.2.2-.3.3-.6.6-1.1,1.3-1.5,2-.4.6-.7,1.2-1,1.8,0,0,0,.2-.1.3,0,.2,0,.3-.2.4-.2.4-.3.8-.4,1.2,0,.4-.2.8-.3,1.3,0,.3,0,.6,0,.9,0,.1,0,.2,0,.4,0,.3,0,.5,0,.8v.6c0,.3,0,.6,0,1,0,.4.1.9.2,1.3,0,.4.2.9.3,1.3l.2.5c0,.2,0,.3.2.5.2.4.4.8.6,1.2.4.6.8,1.3,1.2,1.9.3.4.7.8,1.1,1.2.4.4.8.7,1.2,1.1,1,.7,2,1.4,3.1,1.8,1.3.5,2.7.9,4.1,1,.3,0,.6,0,1,0,.8,0,1.5,0,2.2-.2.7-.1,1.5-.3,2.2-.6.2,0,.5-.2.7-.3l1-.5c1.2-.6,2.3-1.4,3.3-2.4h0c.3-.3.6-.7.9-1,.3-.3.6-.7.8-1.1.2-.4.4-.7.6-1.1l1.2.5,1.2.5,1.2.5,3.2,1.3,1.2.5,1.2.5,1.2.5c-.2.4-.4.8-.6,1.2Z"></path><polygon class="cls-2" points="84.1 21.1 68.7 21.1 68.7 32.3 77.4 32.3 84.1 21.1"></polygon><polygon class="cls-2" points="64.8 14.4 88.1 14.4 94.8 3.1 53.5 3.1 53.5 50.2 64.8 50.2 64.8 14.4"></polygon></svg>